<?xml version="1.0" encoding="UTF-8"?>
<svg id="a" xmlns="http://www.w3.org/2000/svg" width="960.91" height="240.44" viewBox="0 0 960.91 240.44">
  <path d="m229.15,114.54c0,9.9-1.31,19.58-3.68,28.79-.08.08-.23.08-.38.15-13.97,6.68-29.56,10.36-46.06,10.36-29.56,0-56.27-11.98-75.69-31.24-3.15-3.15-6.14-6.53-8.91-10.06,5.22,17.2,14.66,32.55,27.1,44.91,19.42,19.27,46.06,31.09,75.54,31.09,1.46,0,2.92,0,4.45-.08h.61c.31,0,.61,0,.92-.08-21.11,25.33-52.97,41.45-88.51,41.45-14.51,0-28.33-2.69-41.07-7.52.08-.23.15-.46.23-.69.08-.15.08-.31.15-.38,2.07-6.45,3.15-13.2,3.15-20.34,0-18.5-7.52-35.31-19.65-47.44-12.13-12.13-28.86-19.65-47.44-19.65-2.76,0-5.53.15-8.21.46-1.15-6.45-1.69-12.97-1.69-19.73,0-10.21,1.31-20.11,3.84-29.48,13.97-6.68,29.56-10.36,46.06-10.36,29.56,0,56.27,11.98,75.69,31.24,3.15,3.15,6.14,6.53,8.91,10.06-5.22-17.2-14.66-32.55-27.1-44.91-19.42-19.27-46.06-31.09-75.54-31.09-1.46,0-2.92,0-4.45.08C48.52,15.58,79.69,0,114.61,0c14.28,0,27.94,2.61,40.61,7.37,31.86,12.05,56.96,38,67.94,70.4v.08c1.77,5.3,3.22,10.82,4.22,16.43,1.15,6.6,1.77,13.36,1.77,20.27h0Z" fill="#de9168"/>
  <g>
    <path d="m313.44,53.07c4.56,2.38,10.55,3.59,17.86,3.59h18.46v-15.2h-18.95c-7.46,0-13.3-1.58-17.37-4.7v-18.63h53.49V2.45h-69.05v96.53h71.26v-15.69h-55.7v-30.23Z"/>
    <polygon points="427.92 98.99 465.12 2.45 447.63 2.45 421.45 71.6 394.92 2.45 377.8 2.45 415.25 98.99 427.92 98.99"/>
    <path d="m497.2,2.45l-37.45,96.53h17.12l8.55-22.16c4.08.96,9.57,1.92,15.29,1.92,6.98,0,14.53-1.46,20.2-2.88l8.79,23.12h17.37L509.87,2.45h-12.67Zm3.51,60.85c-3.1,0-6.41-.31-9.7-.9l12.4-32.56,12.05,31.65c-3.9.84-9.53,1.81-14.75,1.81Z"/>
    <path d="m577.56,38.84c10.98,16.86,25.68,30.1,45.65,41.19v18.96h15.56V2.45h-15.56v59.36c-20.65-14.09-33.73-27.74-45.81-57.94l-.57-1.42h-14.83v96.53h15.56v-60.15Z"/>
    <path d="m695.88,101.44c17,0,36.86-7.5,36.86-28.64s-15.01-26.84-28.11-30.17c-1.18-.28-2.39-.56-3.62-.84-12.67-2.89-21.64-5.54-21.64-13.4,0-11.8,11.63-13.07,16.63-13.07,9.23,0,19.08,4.11,19.08,15.65v3.37l15.32-6.27v-1.52c0-14.89-15.17-26.55-34.53-26.55s-32.32,10.61-32.32,28.39c0,19.13,14.71,24.91,25.76,27.59,1.63.4,3.42.76,5.33,1.14,12.76,2.56,22.52,5.33,22.52,15.68,0,12.91-17.74,13.56-21.29,13.56-12.81,0-19.58-6.77-19.58-19.58v-3.27l-15.56,5.88v1.56c0,19.08,17.87,30.48,35.14,30.48Z"/>
    <path d="m338.57,181.63c-1.18-.28-2.39-.56-3.62-.84-12.67-2.89-21.64-5.54-21.64-13.4,0-11.8,11.63-13.07,16.63-13.07,9.23,0,19.08,4.11,19.08,15.65v3.37l15.32-6.27v-1.52c0-14.89-15.17-26.55-34.53-26.55s-32.32,10.61-32.32,28.39c0,19.13,14.71,24.91,25.76,27.59,1.63.4,3.42.76,5.33,1.14,12.76,2.56,22.52,5.33,22.52,15.68,0,12.91-17.74,13.56-21.29,13.56-12.81,0-19.58-6.77-19.58-19.58v-3.27l-15.56,5.88v1.56c0,19.08,17.87,30.48,35.14,30.48s36.86-7.5,36.86-28.64-15.01-26.83-28.11-30.17Z"/>
    <polygon points="381.42 157.02 410.37 157.02 410.37 237.99 425.93 237.99 425.93 157.02 455.01 157.02 455.01 141.45 381.42 141.45 381.42 157.02"/>
    <path d="m488.25,192.07c4.56,2.38,10.55,3.59,17.86,3.59h18.46v-15.2h-18.95c-7.46,0-13.3-1.58-17.37-4.7v-18.62h53.49v-15.69h-69.05v96.53h71.26v-15.69h-55.7v-30.23Z"/>
    <path d="m624.07,200.82c-20.65-14.09-33.73-27.74-45.81-57.94l-.57-1.42h-14.83v96.53h15.56v-60.15c10.98,16.86,25.68,30.1,45.65,41.19v18.96h15.56v-96.53h-15.56v59.36Z"/>
    <path d="m691.88,141.45l-37.46,96.53h17.12l8.55-22.16c4.08.96,9.57,1.92,15.29,1.92,6.98,0,14.53-1.46,20.2-2.88l8.79,23.12h17.37l-37.2-96.53h-12.67Zm3.51,60.85c-3.1,0-6.41-.31-9.7-.9l12.4-32.56,12.05,31.65c-3.9.84-9.53,1.81-14.75,1.81Z"/>
    <path d="m816.41,141.45l-44.17,43.25v-43.25h-15.69v96.53h15.69v-31.13l8.84-8.74c5.32,12.46,18.95,39.87,35.77,39.87h14.65v-14.58h-12.2c-7.61,0-18.52-19.25-25.69-37.65l45.22-44.3h-22.41Z"/>
    <rect x="851.38" y="141.45" width="15.56" height="96.53"/>
    <path d="m932.8,181.63c-1.18-.28-2.39-.56-3.62-.84-12.67-2.89-21.64-5.54-21.64-13.4,0-11.8,11.63-13.07,16.63-13.07,9.23,0,19.08,4.11,19.08,15.65v3.37l15.32-6.27v-1.52c0-14.89-15.17-26.55-34.53-26.55s-32.32,10.61-32.32,28.39c0,19.13,14.71,24.91,25.76,27.59,1.63.4,3.42.76,5.33,1.14,12.76,2.56,22.52,5.33,22.52,15.68,0,12.91-17.74,13.56-21.29,13.56-12.81,0-19.58-6.77-19.58-19.58v-3.27l-15.56,5.88v1.56c0,19.08,17.87,30.48,35.14,30.48s36.86-7.5,36.86-28.64-15.01-26.84-28.11-30.17Z"/>
  </g>
</svg>