<?xml version="1.0" encoding="utf-8"?>
<!-- Generator: Adobe Illustrator 27.1.1, SVG Export Plug-In . SVG Version: 6.00 Build 0)  -->
<svg version="1.1" id="Layer_1" xmlns="http://www.w3.org/2000/svg" xmlns:xlink="http://www.w3.org/1999/xlink" x="0px" y="0px"
	 viewBox="0 0 98 96" style="enable-background:new 0 0 98 96;" xml:space="preserve">
<style type="text/css">
	.st0{fill-rule:evenodd;clip-rule:evenodd;}
</style>
<path class="st0" d="M48.9,0C21.8,0,0,22,0,49.2C0,71,14,89.4,33.4,95.9c2.4,0.5,3.3-1.1,3.3-2.4c0-1.1-0.1-5.1-0.1-9.1
	c-13.6,2.9-16.4-5.9-16.4-5.9c-2.2-5.7-5.4-7.2-5.4-7.2c-4.4-3,0.3-3,0.3-3c4.9,0.3,7.5,5.1,7.5,5.1c4.4,7.5,11.4,5.4,14.2,4.1
	c0.4-3.2,1.7-5.4,3.1-6.6c-10.8-1.1-22.2-5.4-22.2-24.3c0-5.4,1.9-9.8,5-13.2c-0.5-1.2-2.2-6.3,0.5-13c0,0,4.1-1.3,13.4,5.1
	c4-1.1,8.1-1.6,12.2-1.6c4.1,0,8.3,0.6,12.2,1.6c9.3-6.4,13.4-5.1,13.4-5.1c2.7,6.8,1,11.8,0.5,13c3.2,3.4,5,7.8,5,13.2
	c0,18.9-11.4,23.1-22.3,24.3c1.8,1.5,3.3,4.5,3.3,9.1c0,6.6-0.1,11.9-0.1,13.5c0,1.3,0.9,2.9,3.3,2.4C83.6,89.4,97.6,71,97.6,49.2
	C97.7,22,75.8,0,48.9,0z"/>
<g id="style_x3D_fill">
	<g id="web">
		<g id="Vector">
			<path d="M-303.7,27.4c0.7,7.3,1.2,14.4,1.2,21.1c0,12.4-1.5,26.5-3.8,40.7c-14.2,2.3-28.3,3.8-40.7,3.8
				c-12.4,0-26.4-1.5-40.7-3.8c-2.3-14.2-3.8-28.3-3.8-40.7c0-6.6,0.4-13.8,1.2-21.1c15,2.4,29.9,4,43.3,4
				C-333.6,31.4-318.6,29.8-303.7,27.4z"/>
			<path d="M-283.4,23.7c0.9,8.6,1.5,17,1.5,24.8c0,11.4-1.1,24-3,36.7c25.9-5.4,49.8-12.3,62.6-16.2c4.1-1.3,5.8-1.8,7.9-2.6
				c1.1-0.4,2.1-0.9,3.4-1.5c0.6-5.4,1-10.8,1-16.4c0-14.6-2.3-28.7-6.5-42l-1.1,0.3C-231,11-256.1,18.2-283.4,23.7z"/>
			<path d="M-224.3-12.6c-13.5,4.1-36.8,10.7-61.9,15.9c-5.8-35.1-15.9-70-20.7-85.9C-270.8-71.5-241-45.9-224.3-12.6z"/>
			<path d="M-306.4,7c-14.2,2.3-28.2,3.8-40.6,3.8s-26.4-1.5-40.6-3.8c5.4-33.2,15.1-67.1,20.1-83.2c1.3-4.1,1.8-5.8,2.6-7.9
				c0.4-1.1,0.9-2.1,1.5-3.4c5.4-0.6,10.8-1,16.4-1c5.8,0,11.5,0.4,17.1,1.1c0.1,0.5,0.2,0.9,0.3,1.2c0.3,1.1,0.8,2.7,1.7,5.4
				l0.1,0.3C-323.6-67.1-312.4-29.6-306.4,7z"/>
			<path d="M-407.8,3.3c5.7-34.9,15.8-69.7,20.6-85.5l0.1-0.3c-36.2,11-66,36.6-82.6,70C-456.2-8.5-432.8-1.9-407.8,3.3z"/>
			<path d="M-477.5,6.5c-4.3,13.2-6.5,27.3-6.5,42c0,5.7,0.4,11.4,1,16.9l2.2,0.7l0,0l0,0l0,0c0.7,0.2,21.1,7,47.9,13.6
				c7.6,1.9,15.6,3.7,23.8,5.4c-1.8-12.7-3-25.3-3-36.7c0-7.8,0.5-16.2,1.5-24.8C-437.9,18.2-463,11-476.4,6.9l-0.1,0L-477.5,6.5z"
				/>
			<path d="M-347,113.6c11.4,0,24-1.1,36.7-3c-5.4,25.9-12.3,49.8-16.2,62.6c-1.3,4.1-1.8,5.8-2.6,7.9c-0.4,1.1-0.9,2.1-1.5,3.4
				c-5.4,0.6-10.8,1-16.4,1s-11-0.3-16.4-1c-0.6-1.3-1.1-2.3-1.5-3.4c-0.9-2.2-1.4-3.8-2.6-7.9c-3.9-12.8-10.8-36.7-16.2-62.6
				C-371,112.4-358.5,113.6-347,113.6z"/>
			<path d="M-437.8,99.7c-17-4.2-31.4-8.5-40.2-11.2c13.3,43.4,47.5,77.7,91,91l-0.1-0.3c-4.2-13.8-12.4-42.1-18.3-72.3
				C-416.8,104.7-427.8,102.2-437.8,99.7z"/>
			<path d="M-216.3,88.7c-13.8,4.2-42.1,12.4-72.3,18.3c-5.8,30.2-14,58.5-18.3,72.3l-0.1,0.3c43.4-13.3,77.7-47.5,91-91
				L-216.3,88.7z"/>
			<path d="M-482.6,65.8c0.5,0.1,0.9,0.1,1,0.2c0.1,0,0.3,0.1,0.4,0.1l0.1,0l0.1,0l0.1,0l0.1,0C-480.9,66.1-481.7,65.9-482.6,65.8z"
				/>
		</g>
	</g>
</g>
</svg>
