<?xml version="1.0" encoding="UTF-8"?>
<svg id="a" xmlns="http://www.w3.org/2000/svg" width="400" height="79.54" xmlns:xlink="http://www.w3.org/1999/xlink" viewBox="0 0 400 79.54">
  <defs>
    <linearGradient id="b" x1="37.94" y1="-1548.61" x2="90.19" y2="-1639.11" gradientTransform="translate(103.83 1633.63) rotate(-180) scale(1 -1)" gradientUnits="userSpaceOnUse">
      <stop offset="0" stop-color="#1d9aff"/>
      <stop offset=".61" stop-color="#aab2ff"/>
      <stop offset="1" stop-color="#425ccb"/>
    </linearGradient>
  </defs>
  <path d="m69.63,77.61l-25.6-29.13c-2.25-2.56-6.25-2.56-8.51,0l-25.6,29.13c-3.45,3.92-9.91,1.48-9.91-3.74V5.66C0,2.54,2.54,0,5.66,0h68.22c3.13,0,5.66,2.54,5.66,5.66v68.21c0,5.22-6.47,7.66-9.91,3.74h0Z" fill="url(#b)"/>
  <path d="m105.05,10.85h10.63l17.49,30.28h.64l17.49-30.28h10.71v57.2h-10.71v-28.2l.64-9.59h-.64l-14.54,25.64h-6.47l-14.62-25.64h-.64l.64,9.59v28.2h-10.63V10.85h0Zm73.02,12.78c-.91,0-1.77-.17-2.6-.52-.83-.34-1.54-.83-2.16-1.44s-1.09-1.32-1.44-2.12c-.35-.8-.52-1.68-.52-2.64s.17-1.84.52-2.64c.34-.8.83-1.5,1.44-2.12s1.33-1.09,2.16-1.44c.83-.34,1.69-.52,2.6-.52,1.86,0,3.46.65,4.79,1.96,1.33,1.31,2,2.89,2,4.76s-.67,3.45-2,4.76c-1.33,1.31-2.93,1.96-4.79,1.96h0Zm-5.19,44.43V28.91h10.46v39.15h-10.46Zm20.05,0V10.85h10.46v57.2h-10.46Zm25.24-44.42c-.91,0-1.77-.17-2.6-.52-.83-.34-1.54-.83-2.16-1.44s-1.09-1.32-1.44-2.12c-.35-.8-.52-1.68-.52-2.64s.17-1.84.52-2.64c.34-.8.83-1.5,1.44-2.12s1.33-1.09,2.16-1.44c.83-.34,1.69-.52,2.6-.52,1.86,0,3.46.65,4.79,1.96,1.33,1.31,2,2.89,2,4.76s-.67,3.45-2,4.76c-1.33,1.31-2.93,1.96-4.79,1.96h0Zm-5.19,44.43V28.91h10.46v39.15h-10.46Zm20.05-57.2h10.46v17.18l-.64,5.59h.64c.96-1.65,2.45-3.06,4.47-4.23,2.02-1.17,4.53-1.76,7.51-1.76,2.5,0,4.89.52,7.15,1.56s4.26,2.48,5.99,4.31c1.73,1.84,3.1,4.04,4.11,6.59,1.01,2.56,1.52,5.35,1.52,8.39s-.51,5.83-1.52,8.39c-1.01,2.56-2.38,4.76-4.11,6.59-1.73,1.84-3.73,3.28-5.99,4.31-2.26,1.04-4.65,1.56-7.15,1.56-2.98,0-5.49-.59-7.51-1.76-2.03-1.17-3.52-2.58-4.47-4.23h-.64v4.71h-9.83s0-57.2,0-57.2Zm20.29,48.81c1.38,0,2.7-.26,3.96-.8,1.25-.53,2.36-1.28,3.32-2.24s1.73-2.13,2.32-3.52c.59-1.38.88-2.93.88-4.63s-.29-3.25-.88-4.63c-.59-1.38-1.36-2.56-2.32-3.52s-2.07-1.7-3.32-2.24c-1.25-.53-2.57-.8-3.96-.8s-2.7.25-3.96.76c-1.25.51-2.36,1.24-3.32,2.2-.96.96-1.73,2.13-2.32,3.52-.59,1.39-.88,2.96-.88,4.71s.29,3.33.88,4.71c.59,1.39,1.36,2.56,2.32,3.52s2.06,1.69,3.32,2.2c1.25.51,2.57.76,3.96.76h0Zm51.77,4.23h-.64c-1.23,1.49-2.7,2.77-4.43,3.83-1.73,1.06-3.96,1.6-6.67,1.6-2.03,0-3.93-.33-5.71-1-1.79-.66-3.34-1.59-4.67-2.76-1.33-1.17-2.37-2.58-3.12-4.23-.74-1.65-1.12-3.46-1.12-5.43s.4-3.85,1.2-5.47c.8-1.63,1.92-3.02,3.36-4.19,1.44-1.17,3.13-2.06,5.07-2.67s4.06-.92,6.35-.92c2.56,0,4.66.2,6.31.6s3.01.81,4.07,1.24v-1.2c0-2.08-.83-3.79-2.48-5.15s-3.7-2.04-6.15-2.04c-3.62,0-6.69,1.52-9.19,4.55l-7.59-5.19c4.15-5.22,9.83-7.83,17.02-7.83,6.07,0,10.71,1.43,13.9,4.27,3.2,2.85,4.79,7.07,4.79,12.66v23.49h-10.31v-4.15h0Zm0-11.75c-1.23-.59-2.49-1.05-3.79-1.4-1.31-.34-2.73-.52-4.27-.52-2.5,0-4.43.55-5.79,1.64-1.36,1.09-2.04,2.44-2.04,4.04s.65,2.88,1.96,3.83c1.31.96,2.81,1.44,4.51,1.44,1.38,0,2.66-.25,3.83-.76s2.17-1.17,3-2c.83-.83,1.46-1.78,1.92-2.88.45-1.09.68-2.22.68-3.39h0Zm33.71,17.18c-2.56,0-4.83-.32-6.83-.96-2-.64-3.73-1.48-5.19-2.52-1.46-1.04-2.7-2.24-3.71-3.6-1.01-1.36-1.79-2.73-2.32-4.11l9.35-4c.91,2.03,2.12,3.53,3.64,4.51,1.52.99,3.21,1.48,5.07,1.48s3.43-.34,4.55-1.04c1.12-.69,1.68-1.52,1.68-2.48,0-1.06-.47-1.93-1.4-2.6-.93-.66-2.54-1.27-4.83-1.8l-5.51-1.2c-1.23-.26-2.49-.69-3.79-1.28-1.31-.59-2.49-1.33-3.56-2.24-1.07-.91-1.94-2-2.64-3.28-.69-1.28-1.04-2.77-1.04-4.47,0-1.92.41-3.62,1.24-5.11.83-1.49,1.96-2.76,3.39-3.79s3.13-1.84,5.07-2.4,4.04-.84,6.27-.84c3.73,0,7.06.73,9.99,2.2,2.93,1.46,5.09,3.79,6.47,6.99l-9.03,3.68c-.74-1.54-1.84-2.66-3.28-3.36-1.44-.69-2.88-1.04-4.31-1.04s-2.8.31-3.92.92c-1.12.61-1.68,1.4-1.68,2.36,0,.91.47,1.63,1.4,2.16s2.2,1.01,3.79,1.44l5.99,1.44c4,.96,6.96,2.49,8.91,4.59,1.94,2.11,2.92,4.59,2.92,7.47,0,1.71-.4,3.33-1.2,4.87-.8,1.54-1.93,2.92-3.39,4.11-1.46,1.2-3.22,2.15-5.27,2.84-2.05.69-4.33,1.04-6.83,1.04h-.01Zm60.56-10.7c-1.81,3.2-4.25,5.78-7.31,7.75-3.06,1.97-6.8,2.96-11.22,2.96-2.98,0-5.74-.52-8.27-1.56-2.53-1.04-4.73-2.49-6.59-4.36-1.86-1.86-3.32-4.06-4.36-6.59-1.04-2.53-1.56-5.31-1.56-8.35,0-2.82.51-5.5,1.52-8.03s2.42-4.74,4.23-6.63c1.81-1.89,3.96-3.39,6.43-4.51s5.21-1.68,8.19-1.68c3.14,0,5.94.52,8.39,1.56,2.45,1.04,4.5,2.48,6.15,4.31,1.65,1.84,2.9,4.01,3.75,6.51.85,2.5,1.28,5.22,1.28,8.15v.96c-.06.32-.08.61-.08.88-.06.27-.08.56-.08.88h-29.48c.21,1.6.65,2.97,1.32,4.11.66,1.14,1.49,2.11,2.48,2.88.98.77,2.06,1.33,3.24,1.68,1.17.35,2.37.52,3.6.52,2.4,0,4.38-.55,5.95-1.64s2.81-2.46,3.71-4.11l8.71,4.31h0Zm-9.51-15.19c-.06-.69-.28-1.46-.68-2.32s-.99-1.65-1.76-2.4c-.77-.74-1.73-1.36-2.88-1.84-1.14-.48-2.52-.72-4.11-.72-2.24,0-4.21.64-5.91,1.92-1.71,1.28-2.9,3.06-3.6,5.35h18.93,0Z" fill="#005ccb"/>
</svg>