<?xml version="1.0" encoding="utf-8"?>
<!-- Generator: Adobe Illustrator 27.1.1, SVG Export Plug-In . SVG Version: 6.00 Build 0)  -->
<svg version="1.1" id="a" xmlns="http://www.w3.org/2000/svg" xmlns:xlink="http://www.w3.org/1999/xlink" x="0px" y="0px"
	 viewBox="0 0 400 79.5" style="enable-background:new 0 0 400 79.5;" xml:space="preserve">
<style type="text/css">
	.st0{fill:url(#SVGID_1_);}
	.st1{fill:#005CCB;}
</style>
<g>
	
		<linearGradient id="SVGID_1_" gradientUnits="userSpaceOnUse" x1="37.9421" y1="-1548.6082" x2="90.1941" y2="-1639.1108" gradientTransform="matrix(-1 0 0 1 103.83 1633.6299)">
		<stop  offset="0" style="stop-color:#1D9AFF"/>
		<stop  offset="0.61" style="stop-color:#AAB2FF"/>
		<stop  offset="1" style="stop-color:#425CCB"/>
	</linearGradient>
	<path class="st0" d="M69.6,77.6L44,48.5c-2.3-2.6-6.2-2.6-8.5,0L9.9,77.6C6.5,81.5,0,79.1,0,73.9V5.7C0,2.5,2.5,0,5.7,0h68.2
		c3.1,0,5.7,2.5,5.7,5.7v68.2C79.5,79.1,73.1,81.5,69.6,77.6L69.6,77.6z"/>
	<path class="st1" d="M105,10.8h10.6l17.5,30.3h0.6l17.5-30.3H162v57.2h-10.7V39.9l0.6-9.6h-0.6l-14.5,25.6h-6.5l-14.6-25.6H115
		l0.6,9.6v28.2H105L105,10.8L105,10.8z M178.1,23.6c-0.9,0-1.8-0.2-2.6-0.5c-0.8-0.3-1.5-0.8-2.2-1.4s-1.1-1.3-1.4-2.1
		c-0.3-0.8-0.5-1.7-0.5-2.6s0.2-1.8,0.5-2.6c0.3-0.8,0.8-1.5,1.4-2.1s1.3-1.1,2.2-1.4c0.8-0.3,1.7-0.5,2.6-0.5c1.9,0,3.5,0.7,4.8,2
		c1.3,1.3,2,2.9,2,4.8s-0.7,3.4-2,4.8C181.5,23,179.9,23.6,178.1,23.6L178.1,23.6z M172.9,68.1V28.9h10.5v39.1H172.9z M192.9,68.1
		V10.8h10.5v57.2H192.9z M218.2,23.6c-0.9,0-1.8-0.2-2.6-0.5c-0.8-0.3-1.5-0.8-2.2-1.4s-1.1-1.3-1.4-2.1c-0.3-0.8-0.5-1.7-0.5-2.6
		s0.2-1.8,0.5-2.6c0.3-0.8,0.8-1.5,1.4-2.1s1.3-1.1,2.2-1.4c0.8-0.3,1.7-0.5,2.6-0.5c1.9,0,3.5,0.7,4.8,2c1.3,1.3,2,2.9,2,4.8
		s-0.7,3.4-2,4.8C221.6,23,220,23.6,218.2,23.6L218.2,23.6z M213,68.1V28.9h10.5v39.1H213z M233,10.8h10.5V28l-0.6,5.6h0.6
		c1-1.7,2.4-3.1,4.5-4.2c2-1.2,4.5-1.8,7.5-1.8c2.5,0,4.9,0.5,7.2,1.6c2.3,1,4.3,2.5,6,4.3c1.7,1.8,3.1,4,4.1,6.6
		c1,2.6,1.5,5.4,1.5,8.4s-0.5,5.8-1.5,8.4c-1,2.6-2.4,4.8-4.1,6.6c-1.7,1.8-3.7,3.3-6,4.3c-2.3,1-4.6,1.6-7.2,1.6
		c-3,0-5.5-0.6-7.5-1.8s-3.5-2.6-4.5-4.2h-0.6v4.7H233C233,68.1,233,10.8,233,10.8z M253.3,59.7c1.4,0,2.7-0.3,4-0.8
		c1.3-0.5,2.4-1.3,3.3-2.2c1-1,1.7-2.1,2.3-3.5c0.6-1.4,0.9-2.9,0.9-4.6s-0.3-3.2-0.9-4.6c-0.6-1.4-1.4-2.6-2.3-3.5
		c-1-1-2.1-1.7-3.3-2.2c-1.3-0.5-2.6-0.8-4-0.8s-2.7,0.3-4,0.8c-1.3,0.5-2.4,1.2-3.3,2.2c-1,1-1.7,2.1-2.3,3.5
		c-0.6,1.4-0.9,3-0.9,4.7s0.3,3.3,0.9,4.7c0.6,1.4,1.4,2.6,2.3,3.5c1,1,2.1,1.7,3.3,2.2C250.6,59.4,251.9,59.7,253.3,59.7
		L253.3,59.7z M305.1,63.9h-0.6c-1.2,1.5-2.7,2.8-4.4,3.8c-1.7,1.1-4,1.6-6.7,1.6c-2,0-3.9-0.3-5.7-1c-1.8-0.7-3.3-1.6-4.7-2.8
		c-1.3-1.2-2.4-2.6-3.1-4.2s-1.1-3.5-1.1-5.4s0.4-3.8,1.2-5.5c0.8-1.6,1.9-3,3.4-4.2s3.1-2.1,5.1-2.7c1.9-0.6,4.1-0.9,6.4-0.9
		c2.6,0,4.7,0.2,6.3,0.6c1.7,0.4,3,0.8,4.1,1.2v-1.2c0-2.1-0.8-3.8-2.5-5.2s-3.7-2-6.2-2c-3.6,0-6.7,1.5-9.2,4.6l-7.6-5.2
		c4.2-5.2,9.8-7.8,17-7.8c6.1,0,10.7,1.4,13.9,4.3c3.2,2.9,4.8,7.1,4.8,12.7v23.5h-10.3V63.9L305.1,63.9z M305.1,52.2
		c-1.2-0.6-2.5-1-3.8-1.4c-1.3-0.3-2.7-0.5-4.3-0.5c-2.5,0-4.4,0.5-5.8,1.6c-1.4,1.1-2,2.4-2,4s0.7,2.9,2,3.8c1.3,1,2.8,1.4,4.5,1.4
		c1.4,0,2.7-0.3,3.8-0.8c1.2-0.5,2.2-1.2,3-2c0.8-0.8,1.5-1.8,1.9-2.9C304.9,54.5,305.1,53.3,305.1,52.2L305.1,52.2z M338.8,69.3
		c-2.6,0-4.8-0.3-6.8-1c-2-0.6-3.7-1.5-5.2-2.5c-1.5-1-2.7-2.2-3.7-3.6c-1-1.4-1.8-2.7-2.3-4.1l9.3-4c0.9,2,2.1,3.5,3.6,4.5
		c1.5,1,3.2,1.5,5.1,1.5c1.9,0,3.4-0.3,4.6-1c1.1-0.7,1.7-1.5,1.7-2.5c0-1.1-0.5-1.9-1.4-2.6c-0.9-0.7-2.5-1.3-4.8-1.8l-5.5-1.2
		c-1.2-0.3-2.5-0.7-3.8-1.3c-1.3-0.6-2.5-1.3-3.6-2.2c-1.1-0.9-1.9-2-2.6-3.3c-0.7-1.3-1-2.8-1-4.5c0-1.9,0.4-3.6,1.2-5.1
		c0.8-1.5,2-2.8,3.4-3.8c1.4-1,3.1-1.8,5.1-2.4c1.9-0.6,4-0.8,6.3-0.8c3.7,0,7.1,0.7,10,2.2c2.9,1.5,5.1,3.8,6.5,7l-9,3.7
		c-0.7-1.5-1.8-2.7-3.3-3.4c-1.4-0.7-2.9-1-4.3-1s-2.8,0.3-3.9,0.9c-1.1,0.6-1.7,1.4-1.7,2.4c0,0.9,0.5,1.6,1.4,2.2
		c0.9,0.5,2.2,1,3.8,1.4l6,1.4c4,1,7,2.5,8.9,4.6c1.9,2.1,2.9,4.6,2.9,7.5c0,1.7-0.4,3.3-1.2,4.9c-0.8,1.5-1.9,2.9-3.4,4.1
		c-1.5,1.2-3.2,2.1-5.3,2.8C343.6,69,341.3,69.3,338.8,69.3L338.8,69.3z M399.4,58.6c-1.8,3.2-4.2,5.8-7.3,7.7c-3.1,2-6.8,3-11.2,3
		c-3,0-5.7-0.5-8.3-1.6c-2.5-1-4.7-2.5-6.6-4.4c-1.9-1.9-3.3-4.1-4.4-6.6c-1-2.5-1.6-5.3-1.6-8.3c0-2.8,0.5-5.5,1.5-8
		s2.4-4.7,4.2-6.6c1.8-1.9,4-3.4,6.4-4.5c2.5-1.1,5.2-1.7,8.2-1.7c3.1,0,5.9,0.5,8.4,1.6c2.4,1,4.5,2.5,6.2,4.3
		c1.7,1.8,2.9,4,3.8,6.5c0.9,2.5,1.3,5.2,1.3,8.1v1c-0.1,0.3-0.1,0.6-0.1,0.9c-0.1,0.3-0.1,0.6-0.1,0.9h-29.5c0.2,1.6,0.7,3,1.3,4.1
		s1.5,2.1,2.5,2.9c1,0.8,2.1,1.3,3.2,1.7c1.2,0.3,2.4,0.5,3.6,0.5c2.4,0,4.4-0.5,6-1.6c1.6-1.1,2.8-2.5,3.7-4.1L399.4,58.6
		L399.4,58.6z M389.9,43.4c-0.1-0.7-0.3-1.5-0.7-2.3c-0.4-0.9-1-1.7-1.8-2.4c-0.8-0.7-1.7-1.4-2.9-1.8c-1.1-0.5-2.5-0.7-4.1-0.7
		c-2.2,0-4.2,0.6-5.9,1.9c-1.7,1.3-2.9,3.1-3.6,5.4L389.9,43.4L389.9,43.4z"/>
</g>
</svg>
