<?xml version="1.0" encoding="UTF-8"?>
<svg id="a" data-name="Layer 1" xmlns="http://www.w3.org/2000/svg" width="1086.67" height="216.78" xmlns:xlink="http://www.w3.org/1999/xlink" viewBox="0 0 1086.67 216.78">
  <defs>
    <linearGradient id="b" x1="116.25" y1="2425.9" x2="258.66" y2="2672.56" gradientTransform="translate(295.83 2657.63) rotate(-180)" gradientUnits="userSpaceOnUse">
      <stop offset="0" stop-color="#1d9aff"/>
      <stop offset=".61" stop-color="#aab2ff"/>
      <stop offset="1" stop-color="#425ccb"/>
    </linearGradient>
  </defs>
  <path d="m189.76,211.51l-69.78-79.38c-6.14-6.99-17.03-6.99-23.18,0L27.02,211.51c-9.4,10.69-27.02,4.04-27.02-10.19V15.43C0,6.91,6.91,0,15.43,0h185.92c8.52,0,15.43,6.91,15.43,15.43v185.89c0,14.23-17.62,20.87-27.02,10.19Z" fill="url(#b)"/>
  <path d="m286.29,29.57h28.96l47.68,82.52h1.74l47.68-82.52h29.18v155.9h-29.18v-76.86l1.74-26.13h-1.74l-39.63,69.89h-17.64l-39.85-69.89h-1.74l1.74,26.13v76.86h-28.96V29.57Zm199.01,34.84c-2.47,0-4.83-.47-7.08-1.42-2.25-.94-4.21-2.25-5.88-3.92-1.67-1.67-2.98-3.59-3.92-5.77-.95-2.18-1.42-4.57-1.42-7.19s.47-5.01,1.42-7.19c.94-2.18,2.25-4.1,3.92-5.77s3.63-2.97,5.88-3.92c2.25-.94,4.61-1.42,7.08-1.42,5.08,0,9.43,1.78,13.06,5.33,3.63,3.56,5.44,7.88,5.44,12.96s-1.82,9.4-5.44,12.96c-3.63,3.56-7.98,5.33-13.06,5.33Zm-14.15,121.06v-106.69h28.52v106.69h-28.52Zm54.65,0V29.57h28.52v155.9h-28.52Zm68.8-121.06c-2.47,0-4.83-.47-7.08-1.42-2.25-.94-4.21-2.25-5.88-3.92-1.67-1.67-2.98-3.59-3.92-5.77-.95-2.18-1.42-4.57-1.42-7.19s.47-5.01,1.42-7.19c.94-2.18,2.25-4.1,3.92-5.77s3.63-2.97,5.88-3.92c2.25-.94,4.61-1.42,7.08-1.42,5.08,0,9.43,1.78,13.06,5.33,3.63,3.56,5.44,7.88,5.44,12.96s-1.82,9.4-5.44,12.96c-3.63,3.56-7.98,5.33-13.06,5.33Zm-14.15,121.06v-106.69h28.52v106.69h-28.52Zm54.65-155.9h28.52v46.81l-1.74,15.24h1.74c2.61-4.5,6.67-8.35,12.19-11.54,5.51-3.19,12.34-4.79,20.47-4.79,6.82,0,13.32,1.42,19.49,4.25,6.17,2.83,11.61,6.75,16.33,11.76,4.72,5.01,8.45,11,11.21,17.96,2.76,6.97,4.14,14.59,4.14,22.86s-1.38,15.9-4.14,22.86c-2.76,6.97-6.5,12.96-11.21,17.96-4.72,5.01-10.16,8.93-16.33,11.76-6.17,2.83-12.67,4.25-19.49,4.25-8.13,0-14.95-1.6-20.47-4.79-5.52-3.19-9.58-7.04-12.19-11.54h-1.74v12.85h-26.78V29.57Zm55.31,133.04c3.77,0,7.37-.72,10.78-2.18,3.41-1.45,6.42-3.48,9.04-6.1s4.72-5.8,6.31-9.58c1.6-3.77,2.4-7.98,2.4-12.63s-.8-8.85-2.4-12.63c-1.6-3.77-3.7-6.97-6.31-9.58s-5.63-4.64-9.04-6.1c-3.41-1.45-7-2.18-10.78-2.18s-7.37.69-10.78,2.07c-3.41,1.38-6.42,3.38-9.04,5.99-2.61,2.61-4.72,5.81-6.31,9.58-1.6,3.78-2.4,8.06-2.4,12.85s.8,9.07,2.4,12.85c1.6,3.78,3.7,6.97,6.31,9.58,2.61,2.61,5.62,4.61,9.04,5.99,3.41,1.38,7,2.07,10.78,2.07Zm141.09,11.54h-1.74c-3.34,4.07-7.37,7.55-12.08,10.45-4.72,2.9-10.78,4.35-18.18,4.35-5.52,0-10.71-.91-15.57-2.72-4.87-1.81-9.11-4.32-12.74-7.51-3.63-3.19-6.46-7.04-8.49-11.54-2.03-4.5-3.05-9.43-3.05-14.81s1.09-10.49,3.27-14.91c2.18-4.43,5.23-8.24,9.15-11.43,3.92-3.19,8.53-5.62,13.83-7.29,5.3-1.67,11.07-2.5,17.31-2.5,6.97,0,12.7.54,17.2,1.63,4.5,1.09,8.2,2.21,11.1,3.38v-3.27c0-5.66-2.25-10.34-6.75-14.04-4.5-3.7-10.09-5.55-16.77-5.55-9.87,0-18.22,4.14-25.04,12.41l-20.69-14.15c11.32-14.22,26.78-21.34,46.38-21.34,16.55,0,29.18,3.89,37.89,11.65,8.71,7.77,13.06,19.27,13.06,34.51v64.01h-28.09v-11.32Zm0-32.01c-3.34-1.6-6.79-2.86-10.34-3.81-3.56-.94-7.44-1.42-11.65-1.42-6.82,0-12.08,1.49-15.79,4.46-3.7,2.98-5.55,6.64-5.55,11s1.78,7.84,5.33,10.45c3.56,2.61,7.65,3.92,12.3,3.92,3.77,0,7.26-.69,10.45-2.07,3.19-1.38,5.91-3.19,8.17-5.44,2.25-2.25,3.99-4.86,5.23-7.84,1.23-2.97,1.85-6.06,1.85-9.25Zm91.88,46.81c-6.97,0-13.17-.87-18.62-2.61-5.44-1.74-10.16-4.03-14.15-6.86-3.99-2.83-7.37-6.1-10.12-9.8-2.76-3.7-4.87-7.44-6.31-11.21l25.48-10.89c2.47,5.52,5.77,9.62,9.91,12.3,4.14,2.69,8.74,4.03,13.83,4.03s9.36-.94,12.41-2.83c3.05-1.88,4.57-4.14,4.57-6.75,0-2.9-1.27-5.26-3.81-7.08-2.54-1.81-6.93-3.45-13.17-4.9l-15.02-3.27c-3.34-.72-6.79-1.88-10.34-3.48-3.56-1.6-6.79-3.63-9.69-6.1-2.91-2.47-5.3-5.44-7.19-8.93-1.89-3.48-2.83-7.55-2.83-12.19,0-5.23,1.12-9.87,3.38-13.94,2.25-4.06,5.33-7.51,9.25-10.34,3.92-2.83,8.53-5.01,13.83-6.53,5.3-1.52,11-2.29,17.09-2.29,10.16,0,19.23,2,27.22,5.99,7.98,3.99,13.86,10.34,17.64,19.05l-24.6,10.02c-2.03-4.21-5.01-7.26-8.93-9.15-3.92-1.88-7.84-2.83-11.76-2.83s-7.62.84-10.67,2.5c-3.05,1.67-4.57,3.81-4.57,6.42,0,2.47,1.27,4.43,3.81,5.88,2.54,1.45,5.99,2.76,10.34,3.92l16.33,3.92c10.89,2.61,18.98,6.79,24.28,12.52,5.3,5.74,7.95,12.52,7.95,20.36,0,4.65-1.09,9.07-3.27,13.28-2.18,4.21-5.26,7.95-9.25,11.21-3.99,3.27-8.78,5.85-14.37,7.73-5.59,1.88-11.8,2.83-18.62,2.83Zm165.04-29.18c-4.94,8.71-11.58,15.75-19.92,21.12-8.35,5.37-18.54,8.06-30.59,8.06-8.13,0-15.64-1.42-22.54-4.25-6.9-2.83-12.88-6.78-17.96-11.87-5.08-5.08-9.04-11.07-11.87-17.96-2.83-6.89-4.25-14.48-4.25-22.75,0-7.69,1.38-14.99,4.14-21.88,2.76-6.89,6.6-12.92,11.54-18.07,4.93-5.15,10.78-9.25,17.53-12.3,6.75-3.05,14.19-4.57,22.32-4.57,8.56,0,16.18,1.42,22.86,4.25,6.67,2.83,12.26,6.75,16.77,11.76,4.5,5.01,7.91,10.92,10.23,17.75,2.32,6.82,3.48,14.23,3.48,22.21v2.61c-.15.87-.22,1.67-.22,2.4-.15.73-.22,1.52-.22,2.4h-80.35c.58,4.35,1.78,8.09,3.59,11.21,1.81,3.12,4.06,5.74,6.75,7.84,2.68,2.11,5.62,3.63,8.82,4.57,3.19.95,6.46,1.42,9.8,1.42,6.53,0,11.94-1.49,16.22-4.46,4.28-2.97,7.65-6.71,10.12-11.21l23.73,11.76Zm-25.91-41.37c-.15-1.88-.76-3.99-1.85-6.31-1.09-2.32-2.69-4.5-4.79-6.53-2.11-2.03-4.72-3.7-7.84-5.01-3.12-1.31-6.86-1.96-11.21-1.96-6.1,0-11.47,1.74-16.11,5.23-4.65,3.48-7.91,8.35-9.8,14.59h51.6Z" fill="#005ccb"/>
</svg>