<?xml version="1.0" encoding="UTF-8"?>
<svg id="a" data-name="Layer 1" xmlns="http://www.w3.org/2000/svg" width="100" height="100" viewBox="0 0 100 100">
  <g id="b" data-name="style=fill">
    <g id="c" data-name="web">
      <g id="d" data-name="Vector">
        <path d="m65.82,42.3c.27,2.68.43,5.27.43,7.7,0,4.54-.55,9.67-1.39,14.86-5.19.84-10.32,1.39-14.86,1.39s-9.65-.55-14.86-1.39c-.84-5.19-1.39-10.32-1.39-14.86,0-2.43.16-5.02.43-7.7,5.47.88,10.92,1.45,15.82,1.45s10.35-.57,15.82-1.45Z"/>
        <path d="m73.22,40.95c.34,3.14.53,6.19.53,9.05,0,4.18-.42,8.76-1.08,13.41,9.44-1.97,18.17-4.49,22.84-5.92,1.51-.46,2.1-.65,2.9-.97.4-.16.76-.32,1.24-.55.23-1.96.35-3.95.35-5.97,0-5.34-.84-10.49-2.39-15.32l-.4.13c-4.89,1.49-14.04,4.12-23.99,6.14Z"/>
        <path d="m94.77,27.71c-4.91,1.49-13.44,3.91-22.58,5.79-2.11-12.79-5.79-25.55-7.57-31.33,13.2,4.03,24.08,13.37,30.15,25.54Z"/>
        <path d="m64.82,34.87c-5.17.84-10.29,1.38-14.82,1.38s-9.64-.55-14.82-1.38c1.98-12.11,5.52-24.47,7.33-30.38.46-1.51.65-2.1.97-2.9.16-.4.32-.76.55-1.24,1.96-.23,3.95-.35,5.97-.35s4.19.13,6.23.38c.04.17.08.31.12.45.12.41.3,1,.61,1.98l.03.1c1.54,4.9,5.63,18.58,7.82,31.95Z"/>
        <path d="m27.81,33.5c2.1-12.74,5.76-25.43,7.53-31.21l.04-.12C22.18,6.2,11.3,15.55,5.23,27.71c4.91,1.49,13.44,3.91,22.58,5.79Z"/>
        <path d="m2.39,34.68c-1.55,4.83-2.39,9.97-2.39,15.32,0,2.09.13,4.15.38,6.17l.79.26h0s0,0,0,0h0c.25.09,7.69,2.54,17.48,4.98,2.76.69,5.69,1.37,8.67,1.99-.67-4.65-1.08-9.23-1.08-13.41,0-2.86.2-5.92.53-9.05-9.95-2.02-19.11-4.65-23.99-6.14h-.03s-.37-.13-.37-.13Z"/>
        <path d="m50,73.75c4.18,0,8.76-.42,13.41-1.08-1.97,9.44-4.49,18.17-5.92,22.84-.46,1.51-.65,2.1-.97,2.9-.16.4-.32.76-.55,1.24-1.96.23-3.95.35-5.97.35s-4.01-.12-5.97-.35c-.23-.48-.39-.84-.55-1.24-.32-.8-.5-1.39-.97-2.9-1.43-4.67-3.95-13.4-5.92-22.84,4.63.66,9.22,1.08,13.41,1.08Z"/>
        <path d="m16.85,68.69c-6.19-1.54-11.46-3.09-14.68-4.07,4.84,15.86,17.35,28.37,33.21,33.21l-.04-.12c-1.55-5.05-4.54-15.36-6.67-26.38-4.14-.8-8.17-1.72-11.83-2.63Z"/>
        <path d="m97.71,64.66c-5.05,1.55-15.37,4.54-26.38,6.67-2.13,11.02-5.12,21.33-6.67,26.38l-.04.12c15.86-4.84,28.37-17.35,33.21-33.21l-.12.04Z"/>
        <path d="m.53,56.3c.17.02.31.05.36.06.04,0,.11.03.13.03h.05s.03.02.03.02h.03s.02.02.02.02c-.01,0-.29-.07-.62-.13Z"/>
      </g>
    </g>
  </g>
</svg>